HIERARCHY
ROOT Hips
{
	OFFSET 0.000000 0.000000 0.000000
	CHANNELS 6 Xposition Yposition Zposition Xrotation Yrotation Zrotation
	JOINT LeftUpLeg_virtual
	{
		OFFSET 0.000000 0.000000 0.000000
		CHANNELS 3 Xrotation Yrotation Zrotation
		JOINT LeftUpLeg
		{
			OFFSET 11.394100 -6.187798 -0.413800
			CHANNELS 3 Xrotation Yrotation Zrotation
			JOINT LeftLeg
			{
				OFFSET 0.430247 -32.302673 3.732800
				CHANNELS 3 Xrotation Yrotation Zrotation
				JOINT LeftFoot
				{
					OFFSET -0.430247 -48.264931 -6.423300
					CHANNELS 3 Xrotation Yrotation Zrotation
					JOINT LeftToeBase
					{
						OFFSET 4.230900 -16.068199 23.438400
						CHANNELS 3 Xrotation Yrotation Zrotation
						JOINT LeftToe_End
						{
							OFFSET 4.510700 0.695400 19.974600
							CHANNELS 3 Xrotation Yrotation Zrotation
							End Site
							{
								OFFSET 0 0 0
							}
						}
					}
				}
			}
		}
	}
	JOINT RightUpLeg_virtual
	{
		OFFSET 0.000000 0.000000 0.000000
		CHANNELS 3 Xrotation Yrotation Zrotation
		JOINT RightUpLeg
		{
			OFFSET -11.333700 -6.187798 -0.413800
			CHANNELS 3 Xrotation Yrotation Zrotation
			JOINT RightLeg
			{
				OFFSET -0.430392 -32.302628 3.733000
				CHANNELS 3 Xrotation Yrotation Zrotation
				JOINT RightFoot
				{
					OFFSET 0.430392 -48.264973 -6.423500
					CHANNELS 3 Xrotation Yrotation Zrotation
					JOINT RightToeBase
					{
						OFFSET -4.230900 -16.068199 23.438400
						CHANNELS 3 Xrotation Yrotation Zrotation
						JOINT RightToe_End
						{
							OFFSET -4.510700 0.695400 19.974600
							CHANNELS 3 Xrotation Yrotation Zrotation
							End Site
							{
								OFFSET 0 0 0
							}
						}
					}
				}
			}
		}
	}
	JOINT Spine_virtual
	{
		OFFSET 0.000000 0.000000 0.000000
		CHANNELS 3 Xrotation Yrotation Zrotation
		JOINT Spine
		{
			OFFSET -0.002400 12.777504 0.315300
			CHANNELS 3 Xrotation Yrotation Zrotation
			JOINT Spine1
			{
				OFFSET -0.002067 5.816869 0.032633
				CHANNELS 3 Xrotation Yrotation Zrotation
				JOINT Spine1_split
				{
					OFFSET -0.002067 5.816869 0.032633
					CHANNELS 3 Xrotation Yrotation Zrotation
					JOINT Spine2
					{
						OFFSET -0.002067 5.816869 0.032633
						CHANNELS 3 Xrotation Yrotation Zrotation
						JOINT Neck_virtual
						{
							OFFSET 0.000000 0.000000 0.000000
							CHANNELS 3 Xrotation Yrotation Zrotation
							JOINT Neck
							{
								OFFSET -0.003700 21.199493 -0.826900
								CHANNELS 3 Xrotation Yrotation Zrotation
								JOINT Head
								{
									OFFSET 0.000000 20.442200 4.834800
									CHANNELS 3 Xrotation Yrotation Zrotation
									JOINT HeadTop_End
									{
										OFFSET 0.000000 34.668396 4.968400
										CHANNELS 3 Xrotation Yrotation Zrotation
										End Site
										{
											OFFSET 0 0 0
										}
									}
								}
							}
						}
						JOINT LeftShoulder_virtual
						{
							OFFSET 0.000000 0.000000 0.000000
							CHANNELS 3 Xrotation Yrotation Zrotation
							JOINT LeftShoulder
							{
								OFFSET 3.288150 8.794197 -1.372250
								CHANNELS 3 Xrotation Yrotation Zrotation
								JOINT LeftShoulder_split
								{
									OFFSET 3.288150 8.794197 -1.372250
									CHANNELS 3 Xrotation Yrotation Zrotation
									JOINT LeftArm
									{
										OFFSET 11.953299 -2.279007 -0.146200
										CHANNELS 3 Xrotation Yrotation Zrotation
										JOINT LeftForeArm
										{
											OFFSET 18.448900 0.000000 0.000000
											CHANNELS 3 Xrotation Yrotation Zrotation
											JOINT LeftHand
											{
												OFFSET 29.527798 0.000000 0.000000
												CHANNELS 3 Xrotation Yrotation Zrotation
												End Site
												{
													OFFSET 0 0 0
												}
											}
										}
									}
								}
							}
						}
						JOINT RightShoulder_virtual
						{
							OFFSET 0.000000 0.000000 0.000000
							CHANNELS 3 Xrotation Yrotation Zrotation
							JOINT RightShoulder
							{
								OFFSET -3.249400 8.794197 -1.372250
								CHANNELS 3 Xrotation Yrotation Zrotation
								JOINT RightShoulder_split
								{
									OFFSET -3.249400 8.794197 -1.372250
									CHANNELS 3 Xrotation Yrotation Zrotation
									JOINT RightArm
									{
										OFFSET -11.953299 -2.279007 -0.146200
										CHANNELS 3 Xrotation Yrotation Zrotation
										JOINT RightForeArm
										{
											OFFSET -18.448900 0.000000 0.000000
											CHANNELS 3 Xrotation Yrotation Zrotation
											JOINT RightHand
											{
												OFFSET -29.527802 0.000000 0.000000
												CHANNELS 3 Xrotation Yrotation Zrotation
												End Site
												{
													OFFSET 0 0 0
												}
											}
										}
									}
								}
							}
						}
					}
				}
			}
		}
	}
}
MOTION
Frames: 7
Frame Time: 0.03333333
102.539413 98.835869 187.470322 0.000000 0.000000 0.000000 -114.613429 -63.031656 177.599303 -58.432931 -10.126246 25.733347 86.486902 -4.068010 -5.131647 12.792811 -8.838675 1.377742 -1.700076 0.137998 -7.017576 0.000000 0.000000 0.000000 -90.071801 -71.619328 -164.002500 -71.195208 -3.425899 -41.798794 48.936458 9.588956 -6.238404 15.199181 -1.733846 13.341537 7.548807 -0.578035 -4.260331 0.000000 0.000000 0.000000 -112.430146 -62.972719 -177.956453 14.869373 4.611625 3.265690 -2.296187 1.408365 6.913407 0.276661 1.311353 1.337665 0.000000 0.000000 0.000000 0.798013 1.435726 5.740219 20.051246 4.719190 11.218324 15.316450 37.537149 -20.073484 0.000000 0.000000 0.000000 0.057273 1.377504 6.467685 1.801654 -10.875014 11.272688 3.646819 2.004584 0.992399 1.319953 12.341167 -1.358796 3.610069 -35.294145 -0.678298 0.000000 0.000000 0.000000 -1.447345 1.903607 6.147520 1.993818 4.931319 17.395561 -0.004664 -1.134109 -0.205367 -22.132958 22.149760 16.411435 2.136825 20.009348 -2.488359 0.000000 0.000000 0.000000 
109.090805 92.588387 198.244919 0.000000 0.000000 0.000000 -114.565235 -59.298910 177.298460 -57.739038 -10.009314 22.225152 86.017524 -1.471035 -4.070858 16.951245 -5.867669 1.444043 0.017561 -0.030946 -6.027252 0.000000 0.000000 0.000000 -95.030177 -67.214123 -169.843541 -70.991743 -3.422891 -37.857730 43.502339 8.194228 -6.098340 21.866962 -2.582819 12.511871 6.288525 -1.178968 -2.078003 0.000000 0.000000 0.000000 -113.613558 -59.156514 179.679778 15.634674 4.552884 2.701053 -1.540543 2.292673 6.181510 0.188258 1.402175 1.877680 0.000000 0.000000 0.000000 0.808266 2.339009 4.812555 19.985094 4.675993 9.182245 15.006108 34.706418 -19.190207 0.000000 0.000000 0.000000 0.359789 2.215708 5.436429 2.063776 -10.175580 10.307501 2.043161 2.790741 0.741979 -1.226736 17.247133 -0.271674 4.006366 -36.237555 -0.461186 0.000000 0.000000 0.000000 -1.261432 2.885822 5.268276 1.629832 7.183401 19.108836 -0.336896 -2.900887 -0.130959 -23.723426 22.228373 18.902398 2.532830 26.395230 -2.287583 0.000000 0.000000 0.000000 
115.586540 83.735107 210.338547 0.000000 0.000000 0.000000 -114.887197 -52.582529 177.318705 -56.061482 -7.819121 20.607475 83.147875 1.282913 -2.975291 17.905570 -1.653230 -0.247963 1.363146 -0.080902 -4.474728 0.000000 0.000000 0.000000 -101.824317 -60.042622 -177.394001 -74.412254 1.006164 -31.246114 39.300646 6.907318 -6.538812 28.565881 -1.446524 13.835877 5.490410 -2.002498 -0.474490 0.000000 0.000000 0.000000 -113.711592 -53.105841 179.181216 16.613146 4.068538 2.342436 -0.658096 3.141560 5.834236 0.589255 1.369526 2.126117 0.000000 0.000000 0.000000 0.815120 3.276321 4.392355 19.029045 4.355377 7.416736 14.130385 31.546520 -17.984035 0.000000 0.000000 0.000000 0.662848 3.074187 4.992070 2.190873 -8.156754 8.550961 1.495108 3.714713 -0.299015 -4.494458 22.800406 0.224229 3.705967 -43.279115 -0.591078 0.000000 0.000000 0.000000 -1.124109 3.814200 4.961223 1.352102 8.608463 20.287269 -0.543447 -3.537959 0.327000 -26.113429 20.857115 22.239890 2.378860 35.495100 -1.586266 0.000000 0.000000 0.000000 
121.877380 72.344849 223.054062 0.000000 0.000000 0.000000 -115.931997 -43.037831 177.073337 -53.966445 -3.044007 21.303063 77.921837 2.772314 -1.701895 15.219419 2.255535 -3.225333 1.558415 -0.138914 -2.084229 0.000000 0.000000 0.000000 -107.212885 -50.346919 176.312277 -83.063324 7.756411 -21.930062 37.558203 6.336520 -7.459247 33.689317 1.840779 16.846868 5.260478 -2.751331 -0.329958 0.000000 0.000000 0.000000 -113.465370 -45.248852 179.249272 17.660175 2.935113 2.131096 0.295197 3.704907 5.990312 0.872690 -0.195183 2.093869 0.000000 0.000000 0.000000 0.901220 4.030312 4.580099 17.830540 3.747297 6.181508 12.758515 27.955954 -16.545153 0.000000 0.000000 0.000000 0.964176 3.807274 5.247531 2.380418 -5.823423 5.947714 2.307280 4.131373 -1.649039 -6.855867 27.328854 -0.509655 3.112722 -54.721696 -0.994298 0.000000 0.000000 0.000000 -0.980078 4.526678 5.363203 1.295207 8.733450 20.894693 -0.753217 -2.917599 0.628678 -28.332861 18.436470 26.227013 1.276412 45.970711 -0.154628 0.000000 0.000000 0.000000 
128.105103 60.186958 235.446747 0.000000 0.000000 0.000000 -116.989024 -32.199028 176.507593 -53.541552 4.016538 24.842723 72.020923 2.238279 -1.098662 10.390341 5.165327 -6.206024 1.129163 -0.134962 0.631513 0.000000 0.000000 0.000000 -110.406313 -38.980446 172.343131 -96.877942 13.002198 -10.616359 39.811035 6.135450 -8.365362 36.367858 5.815060 19.946599 5.630844 -3.229406 -1.242030 0.000000 0.000000 0.000000 -113.180920 -35.861027 179.435968 18.590071 1.236950 2.024033 1.218632 3.923038 6.495594 1.228647 -2.015132 1.854992 0.000000 0.000000 0.000000 1.056120 4.461681 5.174915 17.193674 2.713889 5.737671 11.698375 23.929684 -15.227082 0.000000 0.000000 0.000000 1.309195 4.212315 5.921155 2.804430 -3.921257 2.624916 4.171560 3.405995 -2.496193 -7.480842 28.218037 -2.478582 3.611394 -65.344461 -0.758726 0.000000 0.000000 0.000000 -0.633106 4.934948 6.183420 1.433080 7.212388 21.393578 -1.050319 -1.846165 0.645168 -29.435479 15.978989 30.308623 -1.024858 55.705626 2.069507 0.000000 0.000000 0.000000 
134.367050 49.445477 247.058975 0.000000 0.000000 0.000000 -117.523186 -21.592419 175.522229 -54.993388 11.627842 31.584881 68.199760 0.290275 -2.232045 5.668584 7.088225 -7.521438 1.150170 -0.020694 2.666895 0.000000 0.000000 0.000000 -111.062701 -28.113429 170.027055 -111.573729 13.861901 -0.013157 45.682405 5.668137 -8.802038 36.648814 8.946189 21.580034 6.649830 -3.394523 -2.315849 0.000000 0.000000 0.000000 -112.615749 -26.439782 179.650654 19.056691 -0.868794 1.946767 1.998973 3.827079 6.968436 1.174346 -4.183099 1.273045 0.000000 0.000000 0.000000 1.269326 4.535639 5.769124 17.547690 1.627463 6.150907 11.558674 19.605553 -14.110533 0.000000 0.000000 0.000000 1.758857 4.302321 6.457379 3.474493 -3.350118 -0.987718 5.844747 2.009227 -2.406839 -5.657675 25.181062 -5.355690 6.015564 -71.001661 1.208591 0.000000 0.000000 0.000000 -0.049331 5.015733 6.943705 1.679718 3.977605 22.144110 -1.099835 -0.228491 0.056433 -29.219153 14.322108 33.726733 -4.269541 63.040993 4.862936 0.000000 0.000000 0.000000 
140.551880 42.000935 256.567047 0.000000 0.000000 0.000000 -117.129671 -13.364174 174.230845 -57.802409 17.571700 40.479454 67.768147 -1.462344 -5.280711 2.309030 8.358140 -5.484647 2.653421 0.344986 2.964732 0.000000 0.000000 0.000000 -109.792894 -19.228309 169.140988 -122.463762 11.207401 6.789740 54.491744 4.480488 -8.242707 35.992170 10.255989 20.531451 6.988004 -3.256721 -2.375750 0.000000 0.000000 0.000000 -112.222481 -18.160780 178.974548 18.509859 -2.959785 1.942221 2.480484 3.600411 6.994374 0.796394 -6.988679 0.532101 0.000000 0.000000 0.000000 1.526532 4.349844 5.890976 18.743224 0.418201 7.090141 12.475346 15.115345 -13.138883 0.000000 0.000000 0.000000 2.177866 4.144598 6.356518 4.275824 -4.288736 -3.939351 6.748553 0.516449 -1.632143 -1.985959 18.521945 -7.645745 8.575019 -71.930949 3.579278 0.000000 0.000000 0.000000 0.697887 4.960681 7.149016 2.146248 -0.804809 23.207895 -1.435159 0.882474 -0.973140 -28.198115 13.785556 35.721363 -7.146472 67.092620 6.923608 0.000000 0.000000 0.000000 
